# File created by Blade
# Date/Time:  Tue Apr 07 21:25:57 2015
# Frame Rate: 120.000 fps
#------------------------------------------------------
:FULLY-SPECIFIED
:DEGREES
537
root 12.502493 40.084336 5.721189 26.333009 -60.657366 -4.797477
Spine -6.384698 -12.090647 15.161765
Head 7.591426 -17.552173 0.689144
LeftShoulder -5.488843 17.870963 50.466527
LeftArm 63.921334 -65.042201 -39.385272
LeftForeArm -0.394765 0.000000 18.125001
LeftHand 20.229683 -0.000000 28.840638
LeftHandThumb1 -26.253704 0.000000 33.147579
RightShoulder -0.356645 15.294590 -50.069222
RightArm 14.069340 19.930895 18.360896
RightForeArm -12.027601 -0.000000 23.078759
RightHand 15.447492 -0.000000 -12.101289
RightHandThumb1 -24.326973 -0.000000 -32.862282
LeftUpLeg -11.393815 16.080337 4.475542
LeftLeg -2.560294 -0.000000 0.000000
LeftFoot 46.972157 13.950693 -23.450072
LeftToeBase 10.253415 -0.000000 -0.000000
RightUpLeg -14.803070 -7.864188 9.581370
RightLeg -0.579482 -0.000000 0.000000
RightFoot 48.457049 -11.269710 8.506186
RightToeBase 5.589461 -0.000000 -0.000000
538
root 12.428820 40.850484 5.700952 27.591558 -59.777001 -5.366716
Spine -7.039770 -12.210561 16.290750
Head 7.173534 -17.993041 0.702632
LeftShoulder -5.229432 17.349528 50.992758
LeftArm 61.532390 -64.089740 -37.533015
LeftForeArm -1.322919 -0.000000 15.613520
LeftHand 18.166831 -0.000000 26.055457
LeftHandThumb1 -26.253704 0.000000 33.147579
RightShoulder -1.464727 14.887973 -49.863333
RightArm 13.215676 19.070952 17.284912
RightForeArm -12.143083 -0.000000 20.828134
RightHand 15.185305 -0.000000 -10.784522
RightHandThumb1 -24.326973 -0.000000 -32.862282
LeftUpLeg -11.722557 14.111466 6.703756
LeftLeg 1.072994 -0.000000 -0.000000
LeftFoot 46.045329 14.243769 -20.347449
LeftToeBase 8.228371 -0.000000 -0.000000
RightUpLeg -17.818213 -8.023252 9.438321
RightLeg 3.117794 -0.000000 -0.000000
RightFoot 50.290970 -9.984120 6.221409
RightToeBase 8.283426 -0.000000 -0.000000
539
root 12.416190 41.604484 5.698959 28.173390 -59.541064 -5.407123
Spine -7.117808 -12.097887 16.783766
Head 6.685687 -18.398856 0.768289
LeftShoulder -4.730029 16.835909 51.593823
LeftArm 59.292833 -63.547823 -36.349801
LeftForeArm -3.291061 -0.000000 13.620793
LeftHand 17.173293 -0.000000 23.566765
LeftHandThumb1 -26.253704 0.000000 33.147579
RightShoulder -2.412618 14.387604 -49.635497
RightArm 12.133812 18.639476 16.424443
RightForeArm -11.893079 -0.000000 18.730541
RightHand 15.057052 -0.000000 -10.021058
RightHandThumb1 -24.326973 -0.000000 -32.862282
LeftUpLeg -11.230516 9.923444 8.883785
LeftLeg 3.907936 -0.000000 -0.000000
LeftFoot 45.371941 16.559129 -19.829169
LeftToeBase 9.172090 -0.000000 -0.000000
RightUpLeg -20.627636 -5.337354 7.643011
RightLeg 6.829694 -0.000000 -0.000000
RightFoot 50.421190 -10.648057 4.718959
RightToeBase 7.822656 -0.000000 -0.000000
540
root 12.412431 42.326499 5.704728 27.686031 -59.667062 -4.677455
Spine -6.620147 -12.035278 16.470129
Head 6.199043 -18.535891 1.122833
LeftShoulder -4.115625 16.821080 52.223891
LeftArm 58.145876 -63.739757 -36.337137
LeftForeArm -5.167361 -0.000000 12.102461
LeftHand 16.912609 0.000000 22.126503
LeftHandThumb1 -26.253704 0.000000 33.147579
RightShoulder -3.225764 13.357320 -49.269505
RightArm 10.839900 18.864482 15.855021
RightForeArm -12.159874 -0.000000 16.971206
RightHand 15.186152 -0.000000 -9.664174
RightHandThumb1 -24.326973 -0.000000 -32.862282
LeftUpLeg -10.267139 6.158008 10.267727
LeftLeg 6.563344 -0.000000 -0.000000
LeftFoot 45.699965 16.760297 -19.173577
LeftToeBase 11.357249 -0.000000 -0.000000
RightUpLeg -23.032618 -1.543448 4.602646
RightLeg 10.172902 -0.000000 -0.000000
RightFoot 49.740547 -11.970867 3.774224
RightToeBase 10.218217 -0.000000 -0.000000
